# File produced by Open Asset Import Library (http://www.assimp.sf.net)
# (assimp v3.1.151580502)

mtllib chair.mtl

# 152 vertex positions
v  -1.00244 2.52728 0.936801
v  -1.00244 2.52728 -0.93228
v  -1.00244 2.23284 -0.93228
v  -1.00244 2.23284 0.936801
v  -1.08976 2.52728 0.936801
v  -1.08976 2.23284 0.936801
v  -1.08976 2.52728 -0.93228
v  -1.08976 2.23284 -0.93228
v  0.916738 2.52728 1.00343
v  -0.952344 2.52728 1.00343
v  -0.952344 2.23284 1.00343
v  0.916738 2.23284 1.00343
v  0.916738 2.52728 1.09075
v  0.916738 2.23284 1.09075
v  -0.952344 2.52728 1.09075
v  -0.952344 2.23284 1.09075
v  0.916738 2.52728 -1.09452
v  -0.952344 2.52728 -1.09452
v  -0.952344 2.23284 -1.09452
v  0.916738 2.23284 -1.09452
v  0.916738 2.52728 -1.0072
v  0.916738 2.23284 -1.0072
v  -0.952344 2.52728 -1.0072
v  -0.952344 2.23284 -1.0072
v  1.09705 2.52728 0.936801
v  1.09705 2.52728 -0.93228
v  1.09705 2.23284 -0.93228
v  1.09705 2.23284 0.936801
v  1.00973 2.52728 0.936801
v  1.00973 2.23284 0.936801
v  1.00973 2.52728 -0.93228
v  1.00973 2.23284 -0.93228
v  -1.2334 4.75144 0.936801
v  -1.2334 4.75144 -0.93228
v  -1.19752 4.4592 -0.93228
v  -1.19752 4.4592 0.936801
v  -1.32007 4.7408 0.936801
v  -1.28419 4.44856 0.936801
v  -1.32007 4.7408 -0.93228
v  -1.28419 4.44856 -0.93228
v  -1.09664 2.68217 -1.12563
v  -1.09664 2.68217 -0.865705
v  -1.45629 5.6113 -0.865705
v  -1.45629 5.6113 -1.12563
v  -0.963754 2.69848 -1.12563
v  -1.32341 5.62761 -1.12563
v  -0.963754 2.69848 -0.865705
v  -1.32341 5.62761 -0.865705
v  -1.06199 3.35144 0.936801
v  -1.06199 3.35144 -0.93228
v  -1.0261 3.0592 -0.93228
v  -1.0261 3.0592 0.936801
v  -1.14866 3.3408 0.936801
v  -1.11277 3.04856 0.936801
v  -1.14866 3.3408 -0.93228
v  -1.11277 3.04856 -0.93228
v  -1.14841 4.05144 0.936801
v  -1.14841 4.05144 -0.93228
v  -1.11253 3.7592 -0.93228
v  -1.11253 3.7592 0.936801
v  -1.23508 4.0408 0.936801
v  -1.1992 3.74856 0.936801
v  -1.23508 4.0408 -0.93228
v  -1.1992 3.74856 -0.93228
v  -1.31068 5.40144 0.936801
v  -1.31068 5.40144 -0.93228
v  -1.2748 5.1092 -0.93228
v  -1.2748 5.1092 0.936801
v  -1.39735 5.3908 0.936801
v  -1.36146 5.09856 0.936801
v  -1.39735 5.3908 -0.93228
v  -1.36146 5.09856 -0.93228
v  -1.09671 2.68172 0.867506
v  -1.09671 2.68172 1.12743
v  -1.45647 5.61172 1.12743
v  -1.45647 5.61172 0.867506
v  -0.963581 2.69807 0.867506
v  -1.32334 5.62807 0.867506
v  -0.963581 2.69807 1.12743
v  -1.32334 5.62807 1.12743
v  -1.16932 2.51236 -1.16932
v  -1.16932 2.51236 1.16932
v  -1.16932 2.70237 1.16932
v  -1.16932 2.70237 -1.16932
v  1.16932 2.51236 -1.16932
v  1.16932 2.70237 -1.16932
v  1.16932 2.51236 1.16932
v  1.16932 2.70237 1.16932
v  -1.08508 0.631536 1.0411
v  -0.970342 0.631536 1.0411
v  -0.970342 0.870643 1.0411
v  -1.08508 0.870643 1.0411
v  -1.08508 0.631536 -1.0204
v  -1.08508 0.870643 -1.0204
v  -0.970342 0.631536 -1.0204
v  -0.970342 0.870643 -1.0204
v  0.991702 0.631536 1.0411
v  1.10644 0.631536 1.0411
v  1.10644 0.870643 1.0411
v  0.991702 0.870643 1.0411
v  0.991702 0.631536 -1.0204
v  0.991702 0.870643 -1.0204
v  1.10644 0.631536 -1.0204
v  1.10644 0.870643 -1.0204
v  -1.03075 0.631536 0.977579
v  -1.03075 0.631536 1.09232
v  -1.03075 0.870643 1.09232
v  -1.03075 0.870643 0.977579
v  1.03075 0.631536 0.977579
v  1.03075 0.870643 0.977579
v  1.03075 0.631536 1.09232
v  1.03075 0.870643 1.09232
v  -1.03075 0.631536 -1.09607
v  -1.03075 0.631536 -0.981327
v  -1.03075 0.870643 -0.981327
v  -1.03075 0.870643 -1.09607
v  1.03075 0.631536 -1.09607
v  1.03075 0.870643 -1.09607
v  1.03075 0.631536 -0.981327
v  1.03075 0.870643 -0.981327
v  -1.12996 0.00218296 -1.12996
v  -1.12996 0.00218296 -0.870037
v  -1.12996 2.60145 -0.870037
v  -1.12996 2.60145 -1.12996
v  -0.870037 0.00218296 -1.12996
v  -0.870037 2.60145 -1.12996
v  -0.870037 0.00218296 -0.870037
v  -0.870037 2.60145 -0.870037
v  -1.12996 0.00218296 0.870037
v  -1.12996 0.00218296 1.12996
v  -1.12996 2.60145 1.12996
v  -1.12996 2.60145 0.870037
v  -0.870037 0.00218296 0.870037
v  -0.870037 2.60145 0.870037
v  -0.870037 0.00218296 1.12996
v  -0.870037 2.60145 1.12996
v  0.870037 0.00218296 0.870037
v  0.870037 0.00218296 1.12996
v  0.870037 2.60145 1.12996
v  0.870037 2.60145 0.870037
v  1.12996 0.00218296 0.870037
v  1.12996 2.60145 0.870037
v  1.12996 0.00218296 1.12996
v  1.12996 2.60145 1.12996
v  0.870037 0.00218296 -1.12996
v  0.870037 0.00218296 -0.870037
v  0.870037 2.60145 -0.870037
v  0.870037 2.60145 -1.12996
v  1.12996 0.00218296 -1.12996
v  1.12996 2.60145 -1.12996
v  1.12996 0.00218296 -0.870037
v  1.12996 2.60145 -0.870037

# 4 UV coordinates
vt 0 1 0
vt 0 0 0
vt 1 0 0
vt 1 1 0

# 10 vertex normals
vn -1 -0 0
vn 0 0 -1
vn 1 0 0
vn 0 0 1
vn 0 -1 0
vn 0 1 0
vn -0.9925 -0.1219 0
vn 0.9925 0.1219 0
vn 0.1219 -0.9925 0
vn -0.1219 0.9925 0

# Mesh 'Cube.018_Cube.027_Cube.018_Cube.027' with 12 faces
g Cube.018_Cube.027_Cube.018_Cube.027
usemtl Material.001
f  1/1/1 2/2/1 3/3/1
f  3/3/1 4/4/1 1/1/1
f  5/1/2 1/2/2 4/3/2
f  4/3/2 6/4/2 5/1/2
f  7/1/3 5/2/3 6/3/3
f  6/3/3 8/4/3 7/1/3
f  2/1/4 7/2/4 8/3/4
f  8/3/4 3/4/4 2/1/4
f  2/1/5 1/2/5 5/3/5
f  5/3/5 7/4/5 2/1/5
f  8/1/6 6/2/6 4/3/6
f  4/3/6 3/4/6 8/1/6

# Mesh 'Cube.017_Cube.026_Cube.017_Cube.026' with 12 faces
g Cube.017_Cube.026_Cube.017_Cube.026
usemtl Material.001
f  9/1/4 10/2/4 11/3/4
f  11/3/4 12/4/4 9/1/4
f  13/1/1 9/2/1 12/3/1
f  12/3/1 14/4/1 13/1/1
f  15/1/2 13/2/2 14/3/2
f  14/3/2 16/4/2 15/1/2
f  10/1/3 15/2/3 16/3/3
f  16/3/3 11/4/3 10/1/3
f  10/1/5 9/2/5 13/3/5
f  13/3/5 15/4/5 10/1/5
f  16/1/6 14/2/6 12/3/6
f  12/3/6 11/4/6 16/1/6

# Mesh 'Cube.013_Cube.025_Cube.013_Cube.025' with 12 faces
g Cube.013_Cube.025_Cube.013_Cube.025
usemtl Material.001
f  17/1/4 18/2/4 19/3/4
f  19/3/4 20/4/4 17/1/4
f  21/1/1 17/2/1 20/3/1
f  20/3/1 22/4/1 21/1/1
f  23/1/2 21/2/2 22/3/2
f  22/3/2 24/4/2 23/1/2
f  18/1/3 23/2/3 24/3/3
f  24/3/3 19/4/3 18/1/3
f  18/1/5 17/2/5 21/3/5
f  21/3/5 23/4/5 18/1/5
f  24/1/6 22/2/6 20/3/6
f  20/3/6 19/4/6 24/1/6

# Mesh 'Cube.011_Cube.024_Cube.011_Cube.024' with 12 faces
g Cube.011_Cube.024_Cube.011_Cube.024
usemtl Material.001
f  25/1/1 26/2/1 27/3/1
f  27/3/1 28/4/1 25/1/1
f  29/1/2 25/2/2 28/3/2
f  28/3/2 30/4/2 29/1/2
f  31/1/3 29/2/3 30/3/3
f  30/3/3 32/4/3 31/1/3
f  26/1/4 31/2/4 32/3/4
f  32/3/4 27/4/4 26/1/4
f  26/1/5 25/2/5 29/3/5
f  29/3/5 31/4/5 26/1/5
f  32/1/6 30/2/6 28/3/6
f  28/3/6 27/4/6 32/1/6

# Mesh 'Cube.010_Cube.023_Cube.010_Cube.023' with 12 faces
g Cube.010_Cube.023_Cube.010_Cube.023
usemtl Material.001
f  33/1/7 34/2/7 35/3/7
f  35/3/7 36/4/7 33/1/7
f  37/1/2 33/2/2 36/3/2
f  36/3/2 38/4/2 37/1/2
f  39/1/8 37/2/8 38/3/8
f  38/3/8 40/4/8 39/1/8
f  34/1/4 39/2/4 40/3/4
f  40/3/4 35/4/4 34/1/4
f  34/1/9 33/2/9 37/3/9
f  37/3/9 39/4/9 34/1/9
f  40/1/10 38/2/10 36/3/10
f  36/3/10 35/4/10 40/1/10

# Mesh 'Cube.009_Cube.022_Cube.009_Cube.022' with 12 faces
g Cube.009_Cube.022_Cube.009_Cube.022
usemtl Material.001
f  41/1/7 42/2/7 43/3/7
f  43/3/7 44/4/7 41/1/7
f  45/1/2 41/2/2 44/3/2
f  44/3/2 46/4/2 45/1/2
f  47/1/8 45/2/8 46/3/8
f  46/3/8 48/4/8 47/1/8
f  42/1/4 47/2/4 48/3/4
f  48/3/4 43/4/4 42/1/4
f  42/1/9 41/2/9 45/3/9
f  45/3/9 47/4/9 42/1/9
f  48/1/10 46/2/10 44/3/10
f  44/3/10 43/4/10 48/1/10

# Mesh 'Cube.016_Cube.021_Cube.016_Cube.021' with 12 faces
g Cube.016_Cube.021_Cube.016_Cube.021
usemtl Material.001
f  49/1/7 50/2/7 51/3/7
f  51/3/7 52/4/7 49/1/7
f  53/1/2 49/2/2 52/3/2
f  52/3/2 54/4/2 53/1/2
f  55/1/8 53/2/8 54/3/8
f  54/3/8 56/4/8 55/1/8
f  50/1/4 55/2/4 56/3/4
f  56/3/4 51/4/4 50/1/4
f  50/1/9 49/2/9 53/3/9
f  53/3/9 55/4/9 50/1/9
f  56/1/10 54/2/10 52/3/10
f  52/3/10 51/4/10 56/1/10

# Mesh 'Cube.015_Cube.020_Cube.015_Cube.020' with 12 faces
g Cube.015_Cube.020_Cube.015_Cube.020
usemtl Material.001
f  57/1/7 58/2/7 59/3/7
f  59/3/7 60/4/7 57/1/7
f  61/1/2 57/2/2 60/3/2
f  60/3/2 62/4/2 61/1/2
f  63/1/8 61/2/8 62/3/8
f  62/3/8 64/4/8 63/1/8
f  58/1/4 63/2/4 64/3/4
f  64/3/4 59/4/4 58/1/4
f  58/1/9 57/2/9 61/3/9
f  61/3/9 63/4/9 58/1/9
f  64/1/10 62/2/10 60/3/10
f  60/3/10 59/4/10 64/1/10

# Mesh 'Cube.014_Cube.019_Cube.014_Cube.019' with 12 faces
g Cube.014_Cube.019_Cube.014_Cube.019
usemtl Material.001
f  65/1/7 66/2/7 67/3/7
f  67/3/7 68/4/7 65/1/7
f  69/1/2 65/2/2 68/3/2
f  68/3/2 70/4/2 69/1/2
f  71/1/8 69/2/8 70/3/8
f  70/3/8 72/4/8 71/1/8
f  66/1/4 71/2/4 72/3/4
f  72/3/4 67/4/4 66/1/4
f  66/1/9 65/2/9 69/3/9
f  69/3/9 71/4/9 66/1/9
f  72/1/10 70/2/10 68/3/10
f  68/3/10 67/4/10 72/1/10

# Mesh 'Cube.012_Cube.017_Cube.012_Cube.017' with 12 faces
g Cube.012_Cube.017_Cube.012_Cube.017
usemtl Material.001
f  73/1/7 74/2/7 75/3/7
f  75/3/7 76/4/7 73/1/7
f  77/1/2 73/2/2 76/3/2
f  76/3/2 78/4/2 77/1/2
f  79/1/8 77/2/8 78/3/8
f  78/3/8 80/4/8 79/1/8
f  74/1/4 79/2/4 80/3/4
f  80/3/4 75/4/4 74/1/4
f  74/1/9 73/2/9 77/3/9
f  77/3/9 79/4/9 74/1/9
f  80/1/10 78/2/10 76/3/10
f  76/3/10 75/4/10 80/1/10

# Mesh 'Cube.004_Cube.013_Cube.004_Cube.013' with 12 faces
g Cube.004_Cube.013_Cube.004_Cube.013
usemtl Material.001
f  81/1/1 82/2/1 83/3/1
f  83/3/1 84/4/1 81/1/1
f  85/1/2 81/2/2 84/3/2
f  84/3/2 86/4/2 85/1/2
f  87/1/3 85/2/3 86/3/3
f  86/3/3 88/4/3 87/1/3
f  82/1/4 87/2/4 88/3/4
f  88/3/4 83/4/4 82/1/4
f  82/1/5 81/2/5 85/3/5
f  85/3/5 87/4/5 82/1/5
f  88/1/6 86/2/6 84/3/6
f  84/3/6 83/4/6 88/1/6

# Mesh 'Cube.008_Cube.011_Cube.008_Cube.011' with 12 faces
g Cube.008_Cube.011_Cube.008_Cube.011
usemtl Material.001
f  89/1/4 90/2/4 91/3/4
f  91/3/4 92/4/4 89/1/4
f  93/1/1 89/2/1 92/3/1
f  92/3/1 94/4/1 93/1/1
f  95/1/2 93/2/2 94/3/2
f  94/3/2 96/4/2 95/1/2
f  90/1/3 95/2/3 96/3/3
f  96/3/3 91/4/3 90/1/3
f  90/1/5 89/2/5 93/3/5
f  93/3/5 95/4/5 90/1/5
f  96/1/6 94/2/6 92/3/6
f  92/3/6 91/4/6 96/1/6

# Mesh 'Cube.007_Cube.010_Cube.007_Cube.010' with 12 faces
g Cube.007_Cube.010_Cube.007_Cube.010
usemtl Material.001
f  97/1/4 98/2/4 99/3/4
f  99/3/4 100/4/4 97/1/4
f  101/1/1 97/2/1 100/3/1
f  100/3/1 102/4/1 101/1/1
f  103/1/2 101/2/2 102/3/2
f  102/3/2 104/4/2 103/1/2
f  98/1/3 103/2/3 104/3/3
f  104/3/3 99/4/3 98/1/3
f  98/1/5 97/2/5 101/3/5
f  101/3/5 103/4/5 98/1/5
f  104/1/6 102/2/6 100/3/6
f  100/3/6 99/4/6 104/1/6

# Mesh 'Cube.006_Cube.009_Cube.006_Cube.009' with 12 faces
g Cube.006_Cube.009_Cube.006_Cube.009
usemtl Material.001
f  105/1/1 106/2/1 107/3/1
f  107/3/1 108/4/1 105/1/1
f  109/1/2 105/2/2 108/3/2
f  108/3/2 110/4/2 109/1/2
f  111/1/3 109/2/3 110/3/3
f  110/3/3 112/4/3 111/1/3
f  106/1/4 111/2/4 112/3/4
f  112/3/4 107/4/4 106/1/4
f  106/1/5 105/2/5 109/3/5
f  109/3/5 111/4/5 106/1/5
f  112/1/6 110/2/6 108/3/6
f  108/3/6 107/4/6 112/1/6

# Mesh 'Cube.005_Cube.008_Cube.005_Cube.008' with 12 faces
g Cube.005_Cube.008_Cube.005_Cube.008
usemtl Material.001
f  113/1/1 114/2/1 115/3/1
f  115/3/1 116/4/1 113/1/1
f  117/1/2 113/2/2 116/3/2
f  116/3/2 118/4/2 117/1/2
f  119/1/3 117/2/3 118/3/3
f  118/3/3 120/4/3 119/1/3
f  114/1/4 119/2/4 120/3/4
f  120/3/4 115/4/4 114/1/4
f  114/1/5 113/2/5 117/3/5
f  117/3/5 119/4/5 114/1/5
f  120/1/6 118/2/6 116/3/6
f  116/3/6 115/4/6 120/1/6

# Mesh 'Cube.003_Cube.006_Cube.003_Cube.006' with 12 faces
g Cube.003_Cube.006_Cube.003_Cube.006
usemtl Material.001
f  121/1/1 122/2/1 123/3/1
f  123/3/1 124/4/1 121/1/1
f  125/1/2 121/2/2 124/3/2
f  124/3/2 126/4/2 125/1/2
f  127/1/3 125/2/3 126/3/3
f  126/3/3 128/4/3 127/1/3
f  122/1/4 127/2/4 128/3/4
f  128/3/4 123/4/4 122/1/4
f  122/1/5 121/2/5 125/3/5
f  125/3/5 127/4/5 122/1/5
f  128/1/6 126/2/6 124/3/6
f  124/3/6 123/4/6 128/1/6

# Mesh 'Cube.002_Cube.005_Cube.002_Cube.005' with 12 faces
g Cube.002_Cube.005_Cube.002_Cube.005
usemtl Material.001
f  129/1/1 130/2/1 131/3/1
f  131/3/1 132/4/1 129/1/1
f  133/1/2 129/2/2 132/3/2
f  132/3/2 134/4/2 133/1/2
f  135/1/3 133/2/3 134/3/3
f  134/3/3 136/4/3 135/1/3
f  130/1/4 135/2/4 136/3/4
f  136/3/4 131/4/4 130/1/4
f  130/1/5 129/2/5 133/3/5
f  133/3/5 135/4/5 130/1/5
f  136/1/6 134/2/6 132/3/6
f  132/3/6 131/4/6 136/1/6

# Mesh 'Cube.001_Cube.004_Cube.001_Cube.004' with 12 faces
g Cube.001_Cube.004_Cube.001_Cube.004
usemtl Material.001
f  137/1/1 138/2/1 139/3/1
f  139/3/1 140/4/1 137/1/1
f  141/1/2 137/2/2 140/3/2
f  140/3/2 142/4/2 141/1/2
f  143/1/3 141/2/3 142/3/3
f  142/3/3 144/4/3 143/1/3
f  138/1/4 143/2/4 144/3/4
f  144/3/4 139/4/4 138/1/4
f  138/1/5 137/2/5 141/3/5
f  141/3/5 143/4/5 138/1/5
f  144/1/6 142/2/6 140/3/6
f  140/3/6 139/4/6 144/1/6

# Mesh 'Cube_Cube.003_Cube_Cube.003' with 12 faces
g Cube_Cube.003_Cube_Cube.003
usemtl Material.001
f  145/1/1 146/2/1 147/3/1
f  147/3/1 148/4/1 145/1/1
f  149/1/2 145/2/2 148/3/2
f  148/3/2 150/4/2 149/1/2
f  151/1/3 149/2/3 150/3/3
f  150/3/3 152/4/3 151/1/3
f  146/1/4 151/2/4 152/3/4
f  152/3/4 147/4/4 146/1/4
f  146/1/5 145/2/5 149/3/5
f  149/3/5 151/4/5 146/1/5
f  152/1/6 150/2/6 148/3/6
f  148/3/6 147/4/6 152/1/6

